# File created by Blade
# Date/Time:  Tue Apr 07 20:49:15 2015
#---------------------------------------------------------
:version 1.10
:name HOM
:units
  mass 1.0
  length 1.000000
  angle deg
:documentation
     Acclaim Skeleton File
:root
   axis xyz
   order TX TY TZ RX RY RZ
   position 0.000000 0.000000 0.000000
   orientation 0 0 0
:bonedata
   begin
      id 1
      name Spine_dum
      direction 0.000000 1.000000 0.000000
      length 4.885285
      axis 0.0 0.0 0.0 xyz
   end
   begin
      id 2
      name LeftUpLeg_dum
      direction 1.000000 0.000000 0.000000
      length 2.672193
      axis 0.0 0.0 0.0 xyz
   end
   begin
      id 3
      name RightUpLeg_dum
      direction -1.000000 0.000000 0.000000
      length 2.672193
      axis 0.0 0.0 0.0 xyz
   end
   begin
      id 4
      name Spine
      direction 0.000000 1.000000 0.000000
      length 0.000000
      axis 0.0 0.0 0.0 xyz
      dof rx ry rz
   end
   begin
      id 5
      name Spine_dum1
      direction 0.000000 1.000000 0.000000
      length 16.494159
      axis 0.0 0.0 0.0 xyz
   end
   begin
      id 6
      name Spine_dum2
      direction 0.000000 1.000000 0.000000
      length 10.663448
      axis 0.0 0.0 0.0 xyz
   end
   begin
      id 7
      name Spine_dum3
      direction 0.000000 1.000000 0.000000
      length 10.663448
      axis 0.0 0.0 0.0 xyz
   end
   begin
      id 8
      name Head
      direction 0.000000 1.000000 0.000000
      length 4.527550
      axis 0.0 0.0 0.0 xyz
      dof rx ry rz
   end
   begin
      id 9
      name LeftShoulder
      direction 1.000000 0.000000 0.000000
      length 7.531907
      axis 0.0 0.0 -90.0 xyz
      dof rx ry rz
   end
   begin
      id 10
      name LeftArm
      direction 1.000000 0.000000 0.000000
      length 10.229199
      axis 0.0 0.0 -90.0 xyz
      dof rx ry rz
   end
   begin
      id 11
      name LeftForeArm
      direction 1.000000 0.000000 0.000000
      length 8.673495
      axis 0.0 0.0 -90.0 xyz
      dof ry rz rx
   end
   begin
      id 12
      name LeftHand
      direction 0.000000 0.000000 0.000000
      length 0.000000
      axis 0.0 0.0 -90.0 xyz
      dof rx ry rz
   end
   begin
      id 13
      name LeftHand_dum1
      direction 0.000000 0.000000 0.000000
      length 0.000000
      axis 0.0 0.0 -90.0 xyz
   end
   begin
      id 14
      name LeftHand_dum2
      direction 1.000000 0.000000 0.000000
      length 3.937000
      axis 0.0 0.0 -90.0 xyz
   end
   begin
      id 15
      name LeftHandThumb1
      direction 0.000000 0.000000 1.000000
      length 3.937000
      axis 0.0 0.0 -90.0 xyz
      dof rx rz ry
   end
   begin
      id 16
      name RightShoulder
      direction -1.000000 0.000000 0.000000
      length 7.531907
      axis 0.0 0.0 90.0 xyz
      dof rx ry rz
   end
   begin
      id 17
      name RightArm
      direction -1.000000 0.000000 0.000000
      length 10.229199
      axis 0.0 0.0 90.0 xyz
      dof rx ry rz
   end
   begin
      id 18
      name RightForeArm
      direction -1.000000 0.000000 0.000000
      length 8.673495
      axis 0.0 0.0 90.0 xyz
      dof ry rz rx
   end
   begin
      id 19
      name RightHand
      direction 0.000000 0.000000 0.000000
      length 0.000000
      axis 0.0 0.0 90.0 xyz
      dof rx ry rz
   end
   begin
      id 20
      name RightHand_dum1
      direction 0.000000 0.000000 0.000000
      length 0.000000
      axis 0.0 0.0 90.0 xyz
   end
   begin
      id 21
      name RightHand_dum2
      direction -1.000000 0.000000 0.000000
      length 3.937000
      axis 0.0 0.0 90.0 xyz
   end
   begin
      id 22
      name RightHandThumb1
      direction 0.000000 0.000000 1.000000
      length 3.937000
      axis 0.0 0.0 90.0 xyz
      dof rx rz ry
   end
   begin
      id 23
      name LeftUpLeg
      direction 0.000000 -1.000000 0.000000
      length 16.263388
      axis 0.0 0.0 0.0 xyz
      dof rx ry rz
   end
   begin
      id 24
      name LeftLeg
      direction 0.000000 -1.000000 0.000000
      length 14.328163
      axis 0.0 0.0 0.0 xyz
      dof rx ry rz
   end
   begin
      id 25
      name LeftFoot
      direction 0.000000 -0.258819 0.965926
      length 5.031290
      axis 15.0 0.0 0.0 xyz
      dof rx ry rz
   end
   begin
      id 26
      name LeftToeBase
      direction 0.000000 0.000000 1.000000
      length 2.952750
      axis 0.0 0.0 0.0 xyz
      dof rx ry rz
   end
   begin
      id 27
      name RightUpLeg
      direction 0.000000 -1.000000 0.000000
      length 16.263388
      axis 0.0 0.0 0.0 xyz
      dof rx ry rz
   end
   begin
      id 28
      name RightLeg
      direction 0.000000 -1.000000 0.000000
      length 14.328163
      axis 0.0 0.0 0.0 xyz
      dof rx ry rz
   end
   begin
      id 29
      name RightFoot
      direction 0.000000 -0.258819 0.965926
      length 5.031290
      axis 15.0 0.0 0.0 xyz
      dof rx ry rz
   end
   begin
      id 30
      name RightToeBase
      direction 0.000000 0.000000 1.000000
      length 2.952750
      axis 0.0 0.0 0.0 xyz
      dof rx ry rz
   end
:hierarchy
   begin
      root Spine_dum LeftUpLeg_dum RightUpLeg_dum
      Spine_dum Spine
      LeftUpLeg_dum LeftUpLeg
      RightUpLeg_dum RightUpLeg
      Spine Spine_dum1 Spine_dum2 Spine_dum3
      Spine_dum1 Head
      Spine_dum2 LeftShoulder
      Spine_dum3 RightShoulder
      LeftShoulder LeftArm
      LeftArm LeftForeArm
      LeftForeArm LeftHand
      LeftHand LeftHand_dum1 LeftHand_dum2
      LeftHand_dum1 LeftHandThumb1
      RightShoulder RightArm
      RightArm RightForeArm
      RightForeArm RightHand
      RightHand RightHand_dum1 RightHand_dum2
      RightHand_dum1 RightHandThumb1
      LeftUpLeg LeftLeg
      LeftLeg LeftFoot
      LeftFoot LeftToeBase
      RightUpLeg RightLeg
      RightLeg RightFoot
      RightFoot RightToeBase
   end

# File created by Blade
# Date/Time:  Tue Apr 07 20:49:23 2015
# Frame Rate: 120.000 fps
#------------------------------------------------------
:FULLY-SPECIFIED
:DEGREES
32
root 3.552516 32.862829 -2.259329 8.488286 -1.191302 -1.809393
Spine -12.554753 -3.857249 0.764255
Head 15.028493 -1.084790 0.231860
LeftShoulder -20.158453 39.647297 21.310690
LeftArm 57.339898 -54.860688 -54.814461
LeftForeArm 10.371450 -0.000000 -3.581573
LeftHand 3.491880 0.000000 3.310426
LeftHandThumb1 -26.253704 0.000000 33.147579
RightShoulder -6.526115 3.411560 -30.247418
RightArm 12.369708 15.943250 42.981872
RightForeArm -9.881106 -0.000000 0.147519
RightHand 3.117743 -0.000000 0.933677
RightHandThumb1 -24.326973 -0.000000 -32.862282
LeftUpLeg -1.062276 -3.739490 2.455818
LeftLeg -5.408021 -0.000000 0.000000
LeftFoot -4.584888 13.278900 -15.367149
LeftToeBase -10.950520 -0.000000 0.000000
RightUpLeg -2.336060 -1.068817 1.688751
RightLeg -3.816708 -0.000000 0.000000
RightFoot -5.316567 -8.179974 8.408916
RightToeBase -1.805729 -0.000000 0.000000
33
root 3.557491 32.862645 -2.255453 8.499599 -1.171663 -1.811241
Spine -12.548500 -3.831829 0.777198
Head 14.983500 -1.063004 0.246829
LeftShoulder -20.165251 39.650595 21.337597
LeftArm 57.302981 -54.898533 -54.780694
LeftForeArm 10.462947 -0.000000 -3.569837
LeftHand 3.481058 0.000000 3.400454
LeftHandThumb1 -26.253704 0.000000 33.147579
RightShoulder -6.541151 3.431877 -30.269261
RightArm 12.362177 15.935488 42.950671
RightForeArm -9.881543 -0.000000 0.127492
RightHand 2.825473 0.000000 1.046467
RightHandThumb1 -24.326973 -0.000000 -32.862282
LeftUpLeg -1.060211 -3.755103 2.454846
LeftLeg -5.423238 -0.000000 0.000000
LeftFoot -4.574485 13.262451 -15.359926
LeftToeBase -10.952752 -0.000000 0.000000
RightUpLeg -2.337967 -1.064445 1.681571
RightLeg -3.818837 -0.000000 0.000000
RightFoot -5.324255 -8.181289 8.432910
RightToeBase -1.785435 -0.000000 0.000000
34
root 3.562210 32.862884 -2.251348 8.510947 -1.157358 -1.817580
Spine -12.543148 -3.795620 0.804027
Head 14.946380 -1.034172 0.234425
LeftShoulder -20.182798 39.664197 21.340776
LeftArm 57.261745 -54.926099 -54.716247
LeftForeArm 10.405193 -0.000000 -3.563117
LeftHand 3.491898 -0.000000 3.402304
LeftHandThumb1 -26.253704 0.000000 33.147579
RightShoulder -6.540881 3.449131 -30.277378
RightArm 12.330584 15.957140 42.882080
RightForeArm -9.921891 -0.000000 0.119626
RightHand 2.988807 0.000000 0.977069
RightHandThumb1 -24.326973 -0.000000 -32.862282
LeftUpLeg -1.063491 -3.705794 2.450636
LeftLeg -5.428075 -0.000000 0.000000
LeftFoot -4.567033 13.203115 -15.355535
LeftToeBase -10.946472 -0.000000 0.000000
RightUpLeg -2.337274 -1.052629 1.677690
RightLeg -3.824267 -0.000000 0.000000
RightFoot -5.327098 -8.215786 8.431945
RightToeBase -1.739956 -0.000000 0.000000
35
root 3.566558 32.862718 -2.248273 8.534565 -1.138026 -1.831488
Spine -12.542152 -3.765242 0.843069
Head 14.891231 -1.000348 0.212558
LeftShoulder -20.209063 39.667293 21.336760
LeftArm 57.299469 -55.011542 -54.750187
LeftForeArm 10.500542 0.000000 -3.596428
LeftHand 3.631652 -0.000000 3.429216
LeftHandThumb1 -26.253704 0.000000 33.147579
RightShoulder -6.547553 3.477249 -30.301303
RightArm 12.294865 15.942081 42.824498
RightForeArm -9.881462 0.000000 0.137280
RightHand 2.883417 0.000000 1.024876
RightHandThumb1 -24.326973 -0.000000 -32.862282
LeftUpLeg -1.080451 -3.698188 2.460265
LeftLeg -5.428844 -0.000000 0.000000
LeftFoot -4.572773 13.162752 -15.351555
LeftToeBase -10.916565 -0.000000 0.000000
RightUpLeg -2.355874 -1.063383 1.684554
RightLeg -3.823231 -0.000000 0.000000
RightFoot -5.325203 -8.191949 8.479257
RightToeBase -1.749562 -0.000000 0.000000
36
root 3.570806 32.862759 -2.244493 8.558512 -1.109685 -1.855869
Spine -12.546917 -3.734557 0.892659
Head 14.842073 -0.971330 0.200819
LeftShoulder -20.185526 39.636978 21.377487
LeftArm 57.232243 -55.052475 -54.700366
LeftForeArm 10.527035 -0.000000 -3.584233
LeftHand 3.548830 -0.000000 3.539154
LeftHandThumb1 -26.253704 0.000000 33.147579
RightShoulder -6.544480 3.468498 -30.321918
RightArm 12.265433 15.981481 42.778947
RightForeArm -9.842261 -0.000000 0.181221
RightHand 2.611949 -0.000000 1.086748
RightHandThumb1 -24.326973 -0.000000 -32.862282
LeftUpLeg -1.092961 -3.721566 2.483397
LeftLeg -5.441764 -0.000000 0.000000
LeftFoot -4.577587 13.154232 -15.330177
LeftToeBase -10.949129 -0.000000 0.000000
RightUpLeg -2.370300 -1.068077 1.703542
RightLeg -3.822200 -0.000000 0.000000
RightFoot -5.334398 -8.231454 8.487657
RightToeBase -1.749358 -0.000000 0.000000
37
root 3.574973 32.863310 -2.241699 8.579810 -1.081558 -1.869763
Spine -12.548420 -3.704262 0.930970
Head 14.801920 -0.943424 0.186472
LeftShoulder -20.168025 39.626882 21.416164
LeftArm 57.040238 -55.032335 -54.496306
LeftForeArm 10.406567 -0.000000 -3.559645
LeftHand 3.441674 -0.000000 3.521929
LeftHandThumb1 -26.253704 0.000000 33.147579
RightShoulder -6.513419 3.471448 -30.302916
RightArm 12.207416 16.005941 42.657290
RightForeArm -9.885317 -0.000000 0.207934
RightHand 2.640008 -0.000000 1.139148
RightHandThumb1 -24.326973 -0.000000 -32.862282
LeftUpLeg -1.117114 -3.740153 2.497807
LeftLeg -5.430045 -0.000000 0.000000
LeftFoot -4.585419 13.121910 -15.339896
LeftToeBase -10.987500 -0.000000 0.000000
RightUpLeg -2.389323 -1.082696 1.712652
RightLeg -3.812325 -0.000000 0.000000
RightFoot -5.328932 -8.237460 8.501617
RightToeBase -1.771860 -0.000000 0.000000
38
root 3.578644 32.863165 -2.238023 8.602456 -1.045000 -1.882280
Spine -12.544822 -3.691655 0.966067
Head 14.737021 -0.910810 0.175593
LeftShoulder -20.204268 39.645048 21.423895
LeftArm 57.034870 -55.088411 -54.470023
LeftForeArm 10.529326 -0.000000 -3.584600
LeftHand 3.513086 -0.000000 3.350482
LeftHandThumb1 -26.253704 0.000000 33.147579
RightShoulder -6.522163 3.503092 -30.320995
RightArm 12.193283 15.998265 42.608211
RightForeArm -9.934607 -0.000000 0.161836
RightHand 3.004383 -0.000000 1.003768
RightHandThumb1 -24.326973 -0.000000 -32.862282
LeftUpLeg -1.142245 -3.791273 2.518315
LeftLeg -5.412725 -0.000000 0.000000
LeftFoot -4.595248 13.094634 -15.329898
LeftToeBase -11.004634 -0.000000 0.000000
RightUpLeg -2.405651 -1.101710 1.722552
RightLeg -3.807111 -0.000000 0.000000
RightFoot -5.345089 -8.244358 8.531540
RightToeBase -1.708537 -0.000000 0.000000
39
root 3.582822 32.863745 -2.235021 8.632286 -1.011387 -1.891718
Spine -12.550123 -3.649090 0.991698
Head 14.678005 -0.916834 0.175248
LeftShoulder -20.171623 39.606131 21.476325
LeftArm 56.894691 -55.108025 -54.334321
LeftForeArm 10.507165 -0.000000 -3.559585
LeftHand 3.464902 -0.000000 3.409175
LeftHandThumb1 -26.253704 0.000000 33.147579
RightShoulder -6.528304 3.509656 -30.327914
RightArm 12.161796 16.001780 42.543905
RightForeArm -9.997119 -0.000000 0.154599
RightHand 2.955356 -0.000000 0.933066
RightHandThumb1 -24.326973 -0.000000 -32.862282
LeftUpLeg -1.173737 -3.871698 2.536441
LeftLeg -5.404594 -0.000000 0.000000
LeftFoot -4.616042 13.106649 -15.339547
LeftToeBase -10.980887 -0.000000 0.000000
RightUpLeg -2.435341 -1.124421 1.727714
RightLeg -3.796447 -0.000000 0.000000
RightFoot -5.338504 -8.225642 8.565847
RightToeBase -1.695826 -0.000000 0.000000
40
root 3.586308 32.864715 -2.231449 8.659911 -0.957948 -1.906976
Spine -12.549739 -3.636322 1.033659
Head 14.599552 -0.879912 0.165565
LeftShoulder -20.193164 39.601906 21.486007
LeftArm 56.921993 -55.188299 -54.340521
LeftForeArm 10.629813 -0.000000 -3.591140
LeftHand 3.519763 -0.000000 3.272430
LeftHandThumb1 -26.253704 0.000000 33.147579
RightShoulder -6.522888 3.537830 -30.345408
RightArm 12.117120 16.023585 42.485300
RightForeArm -10.041406 -0.000000 0.152570
RightHand 2.972484 -0.000000 0.930640
RightHandThumb1 -24.326973 -0.000000 -32.862282
LeftUpLeg -1.209524 -3.952764 2.563599
LeftLeg -5.388541 -0.000000 0.000000
LeftFoot -4.628000 13.089845 -15.392184
LeftToeBase -11.024767 -0.000000 0.000000
RightUpLeg -2.454100 -1.162104 1.743834
RightLeg -3.791690 -0.000000 0.000000
RightFoot -5.353100 -8.285207 8.506037
RightToeBase -1.586230 -0.000000 0.000000
41
root 3.590436 32.865223 -2.226479 8.674261 -0.919693 -1.907137
Spine -12.536589 -3.619486 1.053508
Head 14.521451 -0.841315 0.165585
LeftShoulder -20.184635 39.555697 21.530889
LeftArm 56.836967 -55.252357 -54.284558
LeftForeArm 10.731031 -0.000000 -3.547960
LeftHand 3.385372 -0.000000 3.154161
LeftHandThumb1 -26.253704 0.000000 33.147579
RightShoulder -6.506060 3.592169 -30.355560
RightArm 12.047427 15.986324 42.404538
RightForeArm -10.041408 0.000000 0.187968
RightHand 2.418324 -0.000000 1.078597
RightHandThumb1 -24.326973 -0.000000 -32.862282
LeftUpLeg -1.222328 -4.022882 2.570639
LeftLeg -5.382059 -0.000000 0.000000
LeftFoot -4.622718 13.090539 -15.379657
LeftToeBase -11.087231 -0.000000 0.000000
RightUpLeg -2.458899 -1.192265 1.742111
RightLeg -3.792226 -0.000000 0.000000
RightFoot -5.349927 -8.299846 8.494748
RightToeBase -1.596783 -0.000000 0.000000
42
root 3.593866 32.866291 -2.221336 8.694360 -0.865030 -1.909484
Spine -12.534643 -3.591723 1.070952
Head 14.456429 -0.841388 0.167417
LeftShoulder -20.170189 39.539254 21.579444
LeftArm 56.834896 -55.315994 -54.293751
LeftForeArm 10.744889 -0.000000 -3.533969
LeftHand 3.481169 -0.000000 3.130680
LeftHandThumb1 -26.253704 0.000000 33.147579
RightShoulder -6.509788 3.584848 -30.345633
RightArm 12.024793 15.959608 42.310720
RightForeArm -10.027787 -0.000000 0.141468
RightHand 2.787785 -0.000000 0.967404
RightHandThumb1 -24.326973 -0.000000 -32.862282
LeftUpLeg -1.245871 -4.091942 2.581461
LeftLeg -5.367692 -0.000000 0.000000
LeftFoot -4.640865 13.080184 -15.418040
LeftToeBase -11.053451 -0.000000 0.000000
RightUpLeg -2.461945 -1.220514 1.744482
RightLeg -3.804310 -0.000000 0.000000
RightFoot -5.343653 -8.320026 8.532369
RightToeBase -1.584953 -0.000000 0.000000
